<?xml version="1.0" standalone="no"?>
<!DOCTYPE svg PUBLIC "-//W3C//DTD SVG 20010904//EN"
 "http://www.w3.org/TR/2001/REC-SVG-20010904/DTD/svg10.dtd">
<svg version="1.0" xmlns="http://www.w3.org/2000/svg"
 width="460.000000pt" height="460.000000pt" viewBox="0 0 460.000000 460.000000"
 preserveAspectRatio="xMidYMid meet">
<metadata>
Created by potrace 1.14, written by Peter Selinger 2001-2017
</metadata>
<g transform="translate(0.000000,460.000000) scale(0.100000,-0.100000)"
fill="#000000" stroke="none">
<path d="M3230 4269 c0 -5 5 -7 10 -4 6 3 10 8 10 11 0 2 -4 4 -10 4 -5 0 -10
-5 -10 -11z"/>
<path d="M2946 4261 c-4 -5 -3 -11 1 -13 14 -7 33 -3 34 7 0 14 -28 19 -35 6z"/>
<path d="M3283 4232 c-18 -24 -26 -28 -57 -24 -20 2 -39 8 -42 13 -9 15 -27
10 -20 -6 4 -12 -3 -15 -29 -15 -26 0 -33 -3 -29 -15 8 -21 -34 -20 -58 2 -17
15 -19 14 -29 -16 -11 -32 -24 -34 -24 -3 0 13 -8 16 -30 15 -16 -1 -23 0 -15
4 31 13 56 51 26 40 -7 -3 -26 1 -41 9 -15 8 -34 14 -41 14 -24 0 -178 -53
-185 -63 -4 -5 -19 -7 -34 -3 -23 6 -26 4 -21 -9 9 -24 -3 -38 -19 -25 -10 8
-15 8 -20 0 -5 -8 -11 -8 -21 1 -11 9 -14 7 -14 -10 0 -14 -6 -21 -18 -21 -10
0 -27 -7 -38 -15 -26 -19 -39 -19 -20 1 11 10 13 21 7 32 -4 9 -7 24 -5 32 2
8 -3 0 -11 -17 -15 -33 -30 -47 -19 -18 4 8 1 15 -5 15 -6 0 -11 -4 -11 -10 0
-5 -7 -10 -16 -10 -8 0 -22 -7 -31 -15 -8 -8 -19 -12 -25 -9 -6 4 -13 3 -17
-2 -11 -17 -60 -34 -66 -24 -3 6 -16 1 -27 -10 -12 -11 -27 -20 -34 -20 -7 0
-22 -15 -33 -34 -12 -18 -31 -36 -44 -40 -18 -5 -19 -8 -8 -15 12 -8 9 -11
-12 -16 -15 -4 -27 -12 -27 -19 0 -6 -9 -18 -20 -26 -11 -8 -20 -19 -20 -25 0
-5 -10 -33 -22 -62 -22 -55 -20 -75 7 -53 11 9 15 9 15 1 0 -7 -13 -20 -30
-29 -16 -9 -30 -23 -30 -29 0 -7 -5 -13 -11 -13 -7 0 -9 -10 -5 -26 6 -23 5
-25 -16 -19 -19 6 -21 5 -10 -6 12 -13 17 -49 6 -49 -4 0 -13 8 -21 18 -14 16
-14 16 -9 -1 3 -10 -1 -28 -9 -41 -8 -12 -12 -26 -8 -30 4 -4 2 -10 -4 -14
-19 -12 -41 -104 -26 -109 8 -3 9 -12 4 -26 -8 -19 -25 -126 -46 -282 -9 -70
-13 -89 -30 -145 -9 -30 -18 -68 -19 -84 -3 -33 -29 -56 -62 -56 -12 0 -35 -7
-50 -15 -16 -8 -42 -15 -57 -15 -16 0 -26 -4 -23 -9 3 -5 -16 -12 -42 -15 -26
-4 -55 -10 -66 -13 -12 -3 -16 -1 -12 6 4 6 0 11 -8 11 -9 0 -16 -4 -16 -8 0
-4 -16 -6 -35 -4 -19 2 -43 1 -52 -3 -10 -4 -60 -10 -112 -12 -73 -4 -92 -2
-86 7 6 10 -3 11 -43 6 -29 -4 -53 -2 -56 3 -4 5 -24 10 -45 9 -21 0 -57 3
-80 7 -33 5 -52 3 -85 -13 -64 -31 -76 -34 -150 -39 -41 -3 -71 -1 -75 5 -4 6
-31 12 -61 13 -30 2 -60 6 -65 10 -6 5 -31 9 -55 9 -25 1 -67 6 -95 10 -27 5
-97 11 -155 14 -58 3 -120 10 -137 15 -19 5 -35 6 -38 1 -3 -5 -12 -7 -20 -3
-9 3 -15 -1 -15 -8 0 -11 -3 -11 -10 1 -6 10 -10 -386 -10 -1127 0 -904 3
-1142 13 -1146 9 -4 9 -6 0 -6 -9 -1 -13 -20 -13 -61 0 -41 4 -60 13 -60 6 0
19 -5 27 -10 13 -9 13 -11 0 -20 -10 -6 -11 -10 -2 -10 16 0 16 -27 0 -33 -7
-3 0 -10 16 -16 23 -9 32 -9 45 2 9 8 30 17 47 20 28 5 32 3 36 -18 3 -14 0
-26 -8 -29 -9 -3 -11 0 -7 11 5 14 1 13 -23 -4 -22 -16 -34 -19 -47 -12 -13 8
-17 6 -17 -5 0 -9 -7 -12 -20 -9 -12 3 -20 0 -20 -7 0 -6 10 -11 23 -10 43 4
50 1 38 -13 -6 -8 -8 -17 -4 -20 3 -4 -3 -7 -15 -7 -12 0 -22 5 -22 11 0 5 -5
7 -11 4 -20 -13 2 -20 60 -20 55 0 56 1 46 22 -5 13 -16 23 -22 23 -7 0 -13 5
-13 10 0 13 21 13 54 0 15 -5 26 -17 26 -28 0 -24 -47 -76 -53 -59 -4 9 -7 9
-18 0 -10 -10 -9 -17 7 -34 18 -21 18 -22 1 -16 -11 4 -24 4 -30 0 -15 -9 -37
-14 -59 -14 -10 0 -18 -7 -18 -15 0 -8 6 -14 12 -13 43 5 52 -15 14 -33 -21
-9 -23 -13 -11 -24 17 -18 105 -19 105 -1 0 8 3 9 8 1 4 -7 51 -12 119 -13
100 -2 112 0 116 16 4 17 5 17 6 1 1 -16 12 -18 86 -18 47 0 85 2 85 5 0 3
-12 10 -26 15 -14 6 -22 15 -19 20 3 6 -1 13 -10 16 -10 4 -13 13 -9 27 5 16
3 19 -10 14 -17 -7 -18 -4 -20 58 -1 28 5 47 22 65 20 22 28 40 19 40 -2 0
-18 -7 -36 -16 -40 -20 -50 -13 -22 15 26 26 26 33 0 50 -16 9 -24 10 -29 1
-12 -20 -43 39 -36 71 4 21 2 29 -8 29 -7 0 -16 12 -19 28 -8 39 -39 71 -78
79 -38 7 -49 18 -49 50 0 12 -6 24 -12 27 -9 4 -8 5 2 5 52 -4 66 15 34 42
-14 11 -18 11 -29 -4 -15 -21 -25 -22 -25 -1 0 21 -51 69 -59 57 -10 -15 -54
-43 -67 -43 -18 0 -21 31 -8 70 7 19 13 31 13 26 1 -4 10 2 21 15 10 13 19 18
20 12 0 -18 25 -16 40 2 11 13 15 13 21 3 6 -8 9 -2 9 18 0 32 22 48 61 45 9
-1 19 7 22 18 3 12 17 25 31 31 14 5 38 15 54 21 15 7 41 13 57 15 17 2 36 12
42 21 11 15 13 15 19 -2 5 -11 1 -22 -9 -30 -10 -7 -17 -17 -17 -24 0 -18 -20
-12 -28 9 -5 14 -11 17 -22 9 -26 -17 17 -40 60 -33 l35 7 -20 -22 c-11 -12
-27 -20 -36 -18 -12 3 -16 0 -12 -10 4 -10 14 -13 32 -8 14 3 44 9 66 13 34 6
40 11 43 35 2 16 9 27 19 27 10 0 13 -6 9 -16 -4 -11 0 -14 17 -12 16 2 22 -2
22 -17 0 -16 -8 -21 -40 -23 -22 -1 -47 -5 -55 -8 -26 -9 13 -24 54 -22 28 2
38 9 46 29 6 14 10 30 9 35 -5 18 13 54 27 54 11 0 12 -4 4 -19 -15 -28 -13
-32 13 -26 16 4 31 -4 56 -30 24 -24 29 -35 18 -35 -9 0 -20 7 -25 16 -20 35
-102 -10 -89 -49 5 -14 -22 -37 -43 -36 -10 0 -8 3 5 9 19 8 19 9 -2 9 -13 1
-23 6 -23 11 0 22 -30 9 -36 -16 -6 -22 -11 -25 -43 -23 -53 4 -68 -8 -41 -33
17 -16 19 -23 9 -34 -20 -24 -1 -15 26 12 14 14 29 23 32 20 4 -3 0 -12 -9
-19 -22 -17 -30 -57 -12 -57 8 0 14 6 14 13 0 21 45 37 86 31 21 -2 47 -1 58
2 21 7 21 7 1 15 -14 6 -10 7 12 3 26 -4 33 -2 33 10 0 12 10 16 40 16 61 0
47 17 -20 24 -34 4 -58 11 -55 17 9 13 91 11 114 -2 37 -24 118 40 103 81 -4
12 -3 13 10 3 19 -17 31 -5 13 13 -20 21 -31 17 -45 -15 -8 -19 -17 -28 -26
-24 -12 5 -12 7 1 17 11 8 14 20 9 42 -5 27 -9 30 -32 26 -21 -4 -24 -2 -19
12 5 14 2 17 -15 14 -28 -4 -35 22 -18 63 10 24 15 27 31 18 11 -5 19 -16 19
-24 0 -7 5 -17 11 -21 7 -4 9 0 5 13 -4 12 -1 25 8 32 20 17 60 -4 53 -27 -2
-10 -6 -23 -8 -31 -2 -7 2 -16 9 -18 7 -3 12 5 12 21 0 28 14 35 24 11 3 -8
12 -15 20 -15 8 0 18 -9 21 -21 8 -24 45 -69 57 -69 4 0 8 7 8 15 0 19 26 19
34 0 8 -22 26 -18 26 5 0 11 -4 20 -10 20 -5 0 -10 4 -10 10 0 6 9 6 26 -1 34
-12 69 -3 55 15 -14 17 6 36 38 36 l26 0 -25 -20 c-20 -16 -22 -20 -7 -20 23
0 22 -17 -3 -32 -22 -14 -27 -29 -7 -25 8 1 11 -11 9 -42 -2 -27 2 -47 9 -52
10 -6 10 -11 0 -23 -11 -13 -11 -16 3 -16 9 0 16 -8 16 -19 0 -13 -9 -21 -30
-26 l-30 -7 22 -18 c27 -21 19 -37 -10 -21 -35 19 -77 13 -100 -14 -12 -14
-22 -30 -22 -35 0 -6 -8 -10 -17 -11 -15 0 -15 -2 2 -9 20 -8 8 -15 -22 -11
-6 1 -9 -7 -6 -18 3 -11 -4 -28 -16 -40 -23 -23 -20 -41 7 -41 12 -1 9 -5 -10
-15 -14 -8 -34 -32 -45 -53 -10 -22 -27 -43 -38 -48 -13 -6 -19 -17 -18 -32 2
-13 -3 -22 -11 -22 -15 0 -26 -21 -26 -51 0 -11 -6 -22 -14 -25 -7 -3 -22 -23
-32 -44 -11 -22 -23 -40 -28 -40 -4 0 -1 -11 8 -25 19 -30 20 -35 3 -35 -8 0
-14 -7 -14 -15 0 -8 5 -12 10 -8 5 3 6 -3 2 -16 l-6 -21 246 0 c209 0 246 2
251 15 4 8 11 15 16 15 6 0 5 -6 -2 -15 -11 -13 70 -15 724 -15 466 0 736 4
736 10 0 5 -9 14 -20 20 -11 6 -20 18 -20 27 0 22 -32 44 -46 32 -13 -10 -44
-2 -44 12 0 4 7 6 15 3 9 -4 18 2 23 17 6 15 11 18 16 11 4 -7 12 -10 17 -6 6
3 -2 17 -16 30 -15 13 -31 22 -36 19 -5 -4 -9 -1 -9 4 0 6 4 11 10 11 5 0 2 9
-7 20 -13 14 -20 17 -30 8 -7 -6 -13 -7 -13 -3 0 4 -7 2 -15 -5 -12 -10 -15
-9 -15 8 0 15 5 19 20 15 30 -8 24 10 -17 54 -50 51 -116 130 -127 151 -5 9
-21 31 -36 47 -15 17 -42 57 -61 90 -34 62 -65 111 -96 155 -10 14 -17 28 -15
33 1 4 -2 7 -8 7 -13 0 -50 41 -50 56 0 7 8 15 18 17 14 4 14 5 1 6 -9 0 -23
16 -30 33 -19 46 -9 129 12 97 6 -10 9 -6 9 12 0 44 12 87 24 92 10 4 12 -18
11 -86 -2 -51 0 -85 3 -77 8 25 26 30 44 13 16 -15 18 -15 18 0 0 9 -4 19 -10
22 -8 5 -7 50 5 127 3 16 -2 34 -11 43 -20 19 -9 38 15 26 9 -5 53 -45 98 -88
44 -43 93 -87 107 -98 15 -11 34 -27 44 -35 9 -9 34 -27 54 -40 21 -14 38 -28
38 -32 0 -5 8 -8 18 -8 9 0 34 -16 54 -35 20 -19 41 -35 47 -35 22 0 61 -24
67 -42 12 -40 51 -47 273 -50 116 -2 211 -6 211 -10 0 -4 15 -8 33 -10 23 -2
31 -7 29 -19 -2 -14 6 -16 41 -15 24 2 49 6 56 10 7 5 20 1 29 -7 24 -20 131
-20 155 0 13 12 17 13 17 3 0 -9 9 -5 25 10 18 17 22 26 13 31 -17 11 -3 22
28 24 15 0 29 -6 35 -17 7 -14 6 -18 -6 -18 -8 0 -15 -6 -15 -13 0 -23 12 -27
27 -9 12 15 13 9 8 -43 -4 -32 -9 -63 -11 -67 -10 -15 -34 -119 -34 -144 0
-13 -7 -27 -15 -30 -10 -4 -13 -13 -9 -27 5 -15 3 -19 -9 -14 -9 3 -17 -1 -20
-14 -4 -16 -2 -17 16 -7 12 6 29 20 39 32 l17 21 1 -24 c0 -13 -8 -30 -17 -38
-17 -13 -16 -13 6 -7 22 6 21 3 -10 -30 -27 -28 -35 -32 -37 -18 -2 9 -7 21
-12 25 -11 12 -40 -21 -40 -45 0 -11 -8 -22 -20 -25 -21 -6 -27 -28 -9 -38 6
-4 13 2 16 14 3 11 9 18 15 15 5 -3 15 0 23 6 11 10 21 7 44 -12 17 -12 30
-26 30 -29 1 -4 -13 -12 -29 -19 -24 -10 -33 -10 -45 0 -15 13 -19 8 -16 -21
1 -9 -22 -31 -54 -52 -30 -21 -55 -42 -55 -47 0 -15 147 -13 154 3 5 9 7 9 12
0 4 -10 101 -13 432 -13 235 0 433 4 440 8 10 7 12 48 11 170 -2 151 -3 161
-20 152 -9 -6 -19 -15 -22 -22 -2 -8 -8 -9 -13 -4 -5 5 -4 11 4 13 19 7 14 23
-8 23 -14 0 -20 -7 -20 -24 0 -13 6 -26 13 -29 6 -2 1 -4 -13 -4 -14 0 -33 -3
-42 -7 -11 -5 -18 -4 -18 2 0 6 9 14 20 17 25 8 26 22 1 30 -17 5 -18 10 -10
33 12 32 61 72 67 54 2 -7 15 -12 29 -12 21 0 24 2 13 15 -10 12 -10 18 0 30
15 18 5 35 -21 35 -10 0 -19 5 -19 10 0 6 -7 10 -15 10 -23 0 -18 -16 12 -35
23 -16 24 -18 9 -27 -10 -6 -40 -10 -67 -10 -45 1 -49 -1 -44 -19 4 -10 2 -19
-3 -19 -5 0 -12 -9 -15 -20 -3 -11 -11 -20 -17 -20 -9 0 -8 6 2 23 18 26 17
62 -1 80 -10 9 -11 9 -6 -5 5 -13 2 -15 -14 -11 -20 5 -25 14 -22 41 1 6 -3
12 -9 12 -5 0 -10 -4 -10 -10 0 -19 -32 -10 -37 10 -6 23 -14 25 -31 8 -9 -9
-12 -8 -12 6 0 13 -5 16 -19 11 -22 -7 -40 13 -21 25 7 4 20 5 30 3 26 -7 60
14 54 32 -4 10 0 15 12 15 35 0 4 12 -38 15 -39 3 -44 1 -45 -18 0 -12 1 -16
4 -9 6 16 46 16 41 0 -3 -7 -18 -13 -34 -13 -24 0 -29 4 -26 23 4 28 -22 39
-43 18 -24 -23 -27 -20 -20 18 6 32 5 33 -19 29 -19 -4 -26 -1 -26 10 0 8 6
18 13 21 6 3 3 4 -8 3 -15 -1 -22 6 -30 30 -10 35 -26 46 -22 16 1 -10 -2 -19
-8 -21 -5 -1 -11 16 -12 39 -2 29 1 39 10 36 6 -2 11 -10 9 -17 -1 -6 3 -10
10 -8 23 8 21 39 -2 45 -11 3 -19 11 -16 18 2 7 -7 18 -21 24 -20 9 -23 15
-15 23 16 16 15 28 -3 28 -8 0 -15 4 -15 9 0 5 -7 17 -16 25 -20 20 -40 10
-23 -11 11 -12 9 -13 -14 -8 -17 5 -27 3 -27 -4 0 -6 6 -11 14 -11 24 0 46
-29 46 -61 0 -16 -5 -29 -11 -29 -6 0 -9 7 -5 15 3 8 1 15 -4 15 -6 0 -10 -4
-10 -10 0 -5 -7 -7 -15 -4 -8 4 -15 12 -15 20 0 8 -4 14 -9 14 -5 0 -26 16
-47 35 -20 19 -41 35 -45 35 -16 0 -9 18 9 23 10 3 6 5 -11 6 -76 3 -96 57
-56 154 12 29 27 64 33 80 6 15 19 30 28 33 23 7 23 34 1 34 -10 0 -31 7 -46
15 -27 14 -57 11 -57 -6 0 -5 -9 -9 -19 -9 -11 0 -21 -6 -24 -12 -3 -10 -9
-10 -25 -1 -14 8 -23 9 -27 2 -4 -5 -16 -7 -28 -4 -12 2 -16 2 -9 -1 19 -9 14
-24 -7 -24 -12 0 -21 -9 -25 -25 -9 -37 -40 -22 -32 16 3 16 2 29 -3 29 -22 0
-29 -76 -8 -83 6 -2 -7 -6 -30 -8 -24 -3 -43 -1 -43 3 0 17 -20 7 -36 -17 -15
-23 -15 -27 0 -50 21 -32 21 -33 -11 -37 -19 -2 -29 -10 -33 -28 -4 -17 -13
-24 -25 -23 -21 2 -62 -23 -56 -35 5 -10 -87 -42 -121 -42 -14 0 -29 -6 -31
-12 -4 -10 -6 -10 -6 0 -1 8 -17 12 -46 12 -35 0 -43 3 -39 15 10 25 -31 18
-52 -10 -11 -14 -22 -21 -29 -16 -5 5 -33 11 -61 13 -28 3 -65 12 -84 21 -18
10 -38 17 -45 17 -6 0 -17 11 -23 25 -9 20 -17 24 -35 20 -24 -7 -54 16 -43
33 3 5 -5 7 -17 5 -14 -3 -26 3 -35 16 -8 14 -8 21 -1 21 5 0 7 5 3 11 -4 8
-9 7 -15 -2 -13 -20 -29 7 -29 48 0 25 -4 31 -15 27 -8 -4 -15 -1 -15 5 0 6
-7 11 -15 11 -8 0 -19 8 -24 19 -29 53 -134 167 -163 177 -10 3 -18 12 -18 20
0 8 -4 14 -10 14 -5 0 -7 -8 -3 -17 3 -10 -8 1 -25 24 -17 22 -36 44 -42 48
-5 3 -8 10 -5 15 3 5 -2 24 -12 42 -9 18 -16 37 -15 42 2 5 -3 13 -10 18 -10
8 -10 11 0 15 16 6 16 44 0 38 -10 -4 -12 10 -10 56 3 38 0 64 -7 68 -13 8
-25 81 -25 154 -1 44 -2 46 -11 23 -9 -20 -14 -23 -23 -14 -9 9 -12 9 -12 -3
-1 -28 -30 24 -30 53 0 20 6 31 23 37 19 8 22 14 19 60 -3 33 -8 51 -17 51
-24 0 -2 269 23 278 6 2 8 10 5 18 -3 8 0 14 6 14 6 0 11 9 11 20 0 11 -4 20
-10 20 -5 0 -10 5 -10 10 0 6 4 9 9 8 10 -4 91 86 91 100 0 6 5 14 12 18 8 5
9 0 5 -15 -6 -24 20 -64 35 -55 13 9 9 24 -7 24 -8 0 -15 5 -15 10 0 6 5 10
11 10 6 0 24 14 41 30 33 33 50 37 68 15 7 -8 17 -12 24 -8 22 14 141 11 177
-4 36 -15 41 -25 26 -50 -4 -6 -1 -14 5 -16 7 -3 -2 -6 -19 -7 -84 -6 -183
-27 -193 -41 -3 -4 -18 -12 -33 -18 -31 -12 -35 -36 -9 -50 9 -5 43 -12 75
-16 50 -6 57 -5 57 10 0 10 8 23 17 30 15 11 19 8 34 -25 19 -42 45 -55 93
-46 27 5 35 13 46 46 7 22 16 40 20 40 4 0 20 -16 36 -37 26 -35 27 -36 5 -30
-14 3 -21 1 -18 -6 5 -16 67 -19 68 -4 1 7 3 35 4 62 4 90 3 88 28 81 13 -3
32 1 44 9 23 16 33 11 33 -17 0 -28 17 -13 25 22 7 30 24 42 26 18 1 -7 4 -2
8 12 5 18 18 29 49 38 39 13 44 12 74 -9 22 -16 48 -24 83 -25 l50 -1 0 -39
c0 -29 4 -39 18 -42 15 -3 16 2 12 38 -5 36 -3 41 12 38 10 -2 17 -11 17 -21
-1 -9 3 -17 9 -17 5 0 3 -8 -6 -18 -11 -12 -13 -22 -7 -28 7 -7 7 -21 -1 -42
-13 -39 2 -65 36 -60 12 1 29 -3 38 -10 23 -19 33 5 11 29 -15 17 -16 23 -4
44 l13 25 24 -32 c29 -40 41 -48 75 -48 36 0 58 10 58 26 0 8 4 14 9 14 5 0
11 9 14 20 6 22 49 29 46 8 0 -7 2 -23 6 -34 7 -23 15 -23 87 -2 45 13 77 52
52 62 -9 3 -24 6 -35 6 -10 0 -19 4 -19 9 0 5 -10 11 -22 14 -13 3 -43 13 -67
22 -35 13 -63 15 -132 9 -62 -4 -88 -3 -94 5 -4 8 -2 12 6 10 34 -4 38 1 33
41 -6 42 0 46 59 41 9 -1 20 5 23 13 3 9 13 16 21 16 8 0 28 10 43 23 33 28
101 35 123 12 8 -8 37 -19 63 -25 27 -6 57 -18 66 -27 17 -15 18 -15 18 0 0
11 8 17 23 17 17 0 19 -2 8 -9 -11 -7 -7 -10 15 -13 17 -2 33 -12 39 -24 8
-17 15 -19 33 -13 29 11 63 -5 56 -25 -3 -8 4 -19 16 -26 14 -7 19 -17 15 -29
-3 -10 1 -24 10 -31 8 -7 15 -24 15 -37 0 -14 12 -59 27 -101 21 -62 26 -93
24 -157 -1 -44 1 -92 5 -107 7 -34 34 -38 34 -5 0 13 15 34 37 53 l38 32 -3
106 c-2 97 -1 107 19 127 19 19 23 20 31 5 15 -27 24 -18 37 39 7 30 18 55 24
55 6 0 1 7 -11 16 l-22 15 20 26 c11 14 20 33 20 43 0 9 3 20 7 24 4 3 8 14 9
24 5 40 35 169 44 190 6 13 7 29 3 35 -11 17 -10 106 1 100 5 -4 6 0 1 8 -15
23 -14 58 1 73 16 17 19 46 4 46 -14 0 -12 74 2 88 9 9 8 12 -5 12 -22 0 -24
68 -2 76 8 4 15 10 15 15 0 5 -7 9 -15 9 -10 0 -15 12 -17 38 -1 38 0 48 9 95
4 19 1 27 -8 27 -10 0 -14 15 -15 51 -1 32 -6 54 -15 60 -11 7 -10 9 4 9 9 0
17 5 17 10 0 6 -6 10 -14 10 -13 0 -39 76 -31 90 2 4 -10 5 -28 3 -27 -4 -29
-2 -14 7 14 9 16 15 7 25 -7 8 -9 19 -5 25 3 6 -3 10 -16 10 -23 0 -89 37 -89
50 0 4 -7 10 -14 13 -10 4 -13 1 -9 -9 3 -7 0 -14 -7 -14 -6 0 -8 -4 -5 -10 3
-5 1 -10 -5 -10 -19 0 -49 42 -56 77 -3 18 -12 37 -20 44 -19 16 -18 29 4 30
30 1 -19 18 -53 18 -26 0 -27 -2 -10 -9 18 -8 17 -9 -7 -9 -38 -1 -43 1 -41
21 2 11 -6 18 -20 20 -16 2 -21 9 -19 26 2 19 -2 22 -17 17 -12 -3 -21 0 -25
10 -8 21 -86 21 -86 0 0 -19 -5 -19 -37 2 -16 11 -43 16 -74 16 -44 -2 -49 0
-49 19 0 20 -1 21 -20 3 -19 -18 -20 -17 -20 4 0 12 -8 24 -17 28 -10 3 -26
13 -35 20 -9 8 -21 12 -26 9 -6 -3 -12 1 -16 9 -3 8 -15 15 -26 15 -23 0 -26
10 -8 28 9 9 9 12 1 12 -7 0 -15 -5 -18 -10 -5 -8 -11 -7 -20 0 -16 13 -39 4
-32 -14 3 -6 -6 -11 -19 -11 -15 0 -22 5 -19 13 3 7 -5 12 -20 12 -25 0 -29 8
-26 43 3 23 -2 22 -26 -11z m-58 -52 c-27 -12 -35 -12 -35 0 0 6 12 10 28 9
24 0 25 -1 7 -9z m75 -24 c0 -29 -28 -42 -48 -22 -13 12 -13 18 -2 30 20 25
50 20 50 -8z m-392 -28 c-5 -15 -48 -24 -48 -10 0 14 12 22 33 22 10 0 17 -5
15 -12z m-171 -19 c-8 -13 -15 -15 -24 -7 -19 16 -16 23 11 24 22 2 23 -1 13
-17z m238 -9 c18 -34 18 -40 5 -40 -5 0 -10 7 -10 15 0 8 -4 15 -9 15 -5 0
-11 9 -14 20 -8 30 10 24 28 -10z m-508 -32 c-3 -8 -6 -5 -6 6 -1 11 2 17 5
13 3 -3 4 -12 1 -19z m157 -9 c-3 -5 -10 -7 -15 -3 -5 3 -7 10 -3 15 3 5 10 7
15 3 5 -3 7 -10 3 -15z m-258 -55 c-9 -9 -20 -13 -24 -9 -4 3 2 13 12 21 25
18 33 10 12 -12z m629 -64 c-3 -5 -11 -10 -16 -10 -6 0 -7 5 -4 10 3 6 11 10
16 10 6 0 7 -4 4 -10z m-45 -20 c-8 -5 -22 -10 -30 -10 -13 0 -13 1 0 10 8 5
22 10 30 10 13 0 13 -1 0 -10z m1088 -7 c5 -18 -20 -16 -44 2 -18 15 -18 15
10 13 16 -2 31 -9 34 -15z m-128 3 c0 -11 -19 -15 -25 -6 -3 5 1 10 9 10 9 0
16 -2 16 -4z m154 -52 c5 -14 4 -15 -9 -4 -17 14 -19 20 -6 20 5 0 12 -7 15
-16z m-1917 -60 c-3 -3 -12 -4 -19 -1 -8 3 -5 6 6 6 11 1 17 -2 13 -5z m1948
-24 c3 -5 1 -10 -4 -10 -6 0 -11 5 -11 10 0 6 2 10 4 10 3 0 8 -4 11 -10z
m113 -89 c3 -8 -1 -12 -9 -9 -7 2 -15 10 -17 17 -3 8 1 12 9 9 7 -2 15 -10 17
-17z m96 -23 c-1 -13 -3 -29 -3 -35 -1 -7 -5 -13 -11 -13 -5 0 -9 10 -7 23 1
13 -3 21 -10 20 -17 -4 -16 2 3 21 20 20 31 14 28 -16z m-117 -1465 c-3 -10
-5 -4 -5 12 0 17 2 24 5 18 2 -7 2 -21 0 -30z m-2050 -355 c-3 -7 -5 -2 -5 12
0 14 2 19 5 13 2 -7 2 -19 0 -25z m59 -686 c22 -15 24 -42 2 -53 -19 -10 -20
-9 -15 12 3 13 1 29 -5 36 -11 14 0 17 18 5z m-14 -102 c3 -17 1 -33 -4 -36
-4 -3 -8 2 -8 11 0 9 -4 14 -8 11 -5 -3 -7 5 -6 17 1 12 3 26 3 30 2 19 19 -5
23 -33z m-512 -82 c0 -3 -6 -8 -12 -10 -7 -3 -13 -13 -13 -24 0 -14 -7 -19
-28 -19 -26 1 -27 0 -10 -12 15 -11 15 -15 4 -22 -7 -5 -11 -13 -7 -19 10 -16
-3 -40 -26 -45 -15 -4 -18 -11 -13 -26 4 -12 2 -21 -4 -21 -6 0 -11 -13 -11
-30 0 -24 -5 -31 -26 -36 -21 -5 -23 -9 -12 -15 16 -9 13 -59 -3 -69 -5 -4
-10 -25 -13 -49 -2 -24 -9 -47 -16 -51 -9 -6 -9 -12 2 -30 10 -18 10 -24 1
-27 -7 -3 -13 -13 -13 -23 0 -11 -7 -23 -16 -28 -9 -5 -18 -22 -19 -37 -3 -25
-7 -38 -31 -100 -10 -28 -10 -26 -18 -67 -5 -21 -13 -38 -20 -38 -6 0 -3 -5 7
-11 21 -12 22 -29 3 -29 -8 0 -16 -5 -18 -12 -2 -6 -10 -8 -16 -4 -13 8 -17
56 -4 56 12 0 31 94 20 101 -7 4 -6 14 1 27 7 14 8 23 1 27 -14 9 -12 25 3 25
14 0 33 73 29 111 -2 21 -7 26 -23 22 -13 -4 -19 0 -19 11 0 10 4 15 9 12 5
-4 7 4 4 15 -6 21 -6 21 -24 -2 -14 -18 -21 -21 -30 -12 -8 8 -5 15 15 29 20
13 30 14 39 5 15 -15 27 -14 27 4 0 8 -7 15 -15 15 -19 0 -19 7 1 27 11 11 12
19 5 26 -8 8 -16 5 -27 -11 -17 -24 -36 -30 -28 -8 3 8 -4 16 -18 20 -15 5
-18 9 -10 13 8 3 19 0 25 -6 15 -15 27 -14 27 3 0 8 7 16 15 20 10 3 14 14 12
28 -2 13 -2 17 0 10 3 -8 11 -11 20 -8 8 3 18 6 23 6 12 0 4 64 -9 68 -6 2
-11 -3 -11 -12 0 -21 -49 -21 -76 -1 -17 13 -17 14 -1 15 11 0 17 8 17 21 0
26 44 66 81 74 15 4 33 13 40 21 6 8 24 14 40 14 35 0 38 13 7 28 -22 11 -22
11 3 6 19 -4 35 2 57 21 18 15 32 22 32 16 0 -6 5 -11 11 -11 5 0 7 5 4 10 -3
6 -4 13 -2 18 6 9 57 10 57 0z m-987 -15 c-7 -2 -19 -2 -25 0 -7 3 -2 5 12 5
14 0 19 -2 13 -5z m67 -13 c0 -5 -4 -10 -10 -10 -5 0 -10 5 -10 10 0 6 5 10
10 10 6 0 10 -4 10 -10z m355 -20 c3 -5 1 -10 -4 -10 -6 0 -11 5 -11 10 0 6 2
10 4 10 3 0 8 -4 11 -10z m-341 -19 c3 -5 -5 -11 -19 -13 -26 -5 -35 6 -12 15
19 8 25 8 31 -2z m-214 -31 c0 -5 -4 -10 -10 -10 -5 0 -10 5 -10 10 0 6 5 10
10 10 6 0 10 -4 10 -10z m1380 -1 c0 -7 -53 -19 -59 -14 -1 2 0 8 3 13 6 11
56 11 56 1z m31 -12 c-13 -13 -26 -3 -16 12 3 6 11 8 17 5 6 -4 6 -10 -1 -17z
m-1161 -7 c0 -11 -7 -20 -15 -20 -15 0 -21 21 -8 33 12 13 23 7 23 -13z m54
-11 c-6 -11 -24 -2 -24 11 0 5 7 7 15 4 8 -4 12 -10 9 -15z m969 8 c22 -2 22
-1 -9 -34 -30 -33 -80 -39 -88 -10 -3 13 2 17 22 18 17 1 21 3 10 6 -10 2 -18
11 -18 20 0 12 7 14 33 8 17 -4 40 -8 50 -8z m187 -19 c0 -19 -21 -48 -35 -48
-21 0 -18 -23 5 -40 11 -8 20 -20 20 -26 0 -7 -8 -10 -20 -7 -11 3 -20 14 -20
24 0 11 -4 19 -10 19 -5 0 -10 16 -10 35 0 38 -7 43 -25 19 -9 -14 -16 -14
-33 -5 -12 6 -22 16 -22 21 0 14 23 25 28 12 3 -11 71 -5 86 9 10 9 36 1 36
-13z m47 -20 c-3 -8 -6 -5 -6 6 -1 11 2 17 5 13 3 -3 4 -12 1 -19z m-1307 -29
c0 -11 -4 -17 -10 -14 -5 3 -10 13 -10 21 0 8 5 14 10 14 6 0 10 -9 10 -21z
m960 -6 c0 -10 -4 -14 -8 -8 -4 6 -11 13 -16 18 -5 4 -2 7 7 7 10 0 17 -8 17
-17z m2060 7 c0 -5 -2 -10 -4 -10 -3 0 -8 5 -11 10 -3 6 -1 10 4 10 6 0 11 -4
11 -10z m-2017 -17 c-7 -2 -19 -2 -25 0 -7 3 -2 5 12 5 14 0 19 -2 13 -5z
m157 -13 c13 -9 13 -10 0 -9 -8 0 -24 4 -35 9 l-20 9 20 0 c11 0 27 -4 35 -9z
m140 -14 c0 -8 -4 -18 -10 -21 -5 -3 -10 3 -10 14 0 12 5 21 10 21 6 0 10 -6
10 -14z m-220 -10 c0 -11 -19 -15 -25 -6 -3 5 1 10 9 10 9 0 16 -2 16 -4z
m-40 -10 c0 -3 -4 -8 -10 -11 -5 -3 -10 -1 -10 4 0 6 5 11 10 11 6 0 10 -2 10
-4z m2000 -16 c0 -5 -2 -10 -4 -10 -3 0 -8 5 -11 10 -3 6 -1 10 4 10 6 0 11
-4 11 -10z m-2480 -46 c0 -2 -9 -4 -20 -4 -11 0 -20 4 -20 9 0 5 9 7 20 4 11
-3 20 -7 20 -9z m500 -4 c0 -11 -4 -20 -10 -20 -5 0 -10 6 -10 14 0 11 -10 13
-42 9 -29 -4 -39 -3 -34 5 4 7 27 12 52 12 37 0 44 -3 44 -20z m-1679 -18 c-8
-3 -5 -9 9 -19 16 -12 19 -18 9 -23 -10 -7 -48 3 -68 17 -8 6 44 41 53 35 6
-3 5 -7 -3 -10z m-23 -67 c16 -35 16 -35 -13 -35 -14 0 -25 5 -25 10 0 6 4 10
9 10 5 0 7 9 4 20 -8 29 12 25 25 -5z m1122 0 c0 -8 -7 -15 -16 -15 -14 0 -14
3 -4 15 7 8 14 15 16 15 2 0 4 -7 4 -15z m2970 -5 c0 -5 -7 -10 -15 -10 -8 0
-15 5 -15 10 0 6 7 10 15 10 8 0 15 -4 15 -10z m-2465 -20 c-3 -5 -11 -10 -16
-10 -6 0 -7 5 -4 10 3 6 11 10 16 10 6 0 7 -4 4 -10z m79 -15 c3 -8 1 -15 -4
-15 -6 0 -10 7 -10 15 0 8 2 15 4 15 2 0 6 -7 10 -15z m-1659 -26 c11 -16 1
-20 -35 -12 -29 5 -31 7 -15 14 29 11 43 10 50 -2z m160 -38 c15 -22 24 -45
20 -51 -6 -9 -10 -9 -16 1 -12 20 -22 3 -11 -18 6 -10 13 -17 16 -16 3 1 12 0
20 -3 19 -7 20 -114 0 -114 -8 0 -14 7 -14 15 0 13 -4 14 -20 5 -25 -13 -26
-2 -2 16 16 13 16 14 -5 20 -27 8 -50 93 -33 125 9 15 7 21 -5 25 -12 5 -13 9
-4 20 17 21 24 18 54 -25z m945 25 c0 -3 -4 -8 -10 -11 -5 -3 -10 -1 -10 4 0
6 5 11 10 11 6 0 10 -2 10 -4z m-1110 -31 c0 -8 -4 -15 -9 -15 -13 0 -22 16
-14 24 11 11 23 6 23 -9z m4182 -13 c12 -5 15 -11 8 -21 -7 -12 -11 -12 -24
-2 -29 24 -20 37 16 23z m-112 -11 c0 -6 -4 -13 -10 -16 -5 -3 -10 1 -10 9 0
9 5 16 10 16 6 0 10 -4 10 -9z m-4031 -51 c1 -3 -19 -5 -42 -6 -43 -1 -43 0
-25 18 10 10 23 16 28 13 5 -3 12 0 16 7 5 8 10 6 15 -8 4 -10 8 -21 8 -24z
m3597 -27 c-10 -10 -19 5 -10 18 6 11 8 11 12 0 2 -7 1 -15 -2 -18z m564 18
c0 -6 -5 -13 -10 -16 -6 -4 -8 -11 -5 -16 4 -5 -1 -9 -10 -9 -12 0 -15 5 -11
16 3 9 6 20 6 25 0 5 7 9 15 9 8 0 15 -4 15 -9z m-1900 -21 c0 -5 -4 -10 -10
-10 -5 0 -10 5 -10 10 0 6 5 10 10 10 6 0 10 -4 10 -10z m-2230 -51 c0 -10 -4
-19 -10 -19 -5 0 -10 12 -10 26 0 14 4 23 10 19 6 -3 10 -15 10 -26z m2268 8
c2 -11 -2 -14 -17 -10 -22 5 -26 14 -14 27 10 10 28 1 31 -17z m1882 -3 c0
-11 -5 -14 -16 -10 -9 3 -21 6 -27 7 -7 0 -3 4 8 9 29 13 35 12 35 -6z m50
-29 c0 -8 -4 -15 -10 -15 -5 0 -10 7 -10 15 0 8 5 15 10 15 6 0 10 -7 10 -15z
m-1850 -16 c0 -6 -4 -7 -10 -4 -5 3 -10 11 -10 16 0 6 5 7 10 4 6 -3 10 -11
10 -16z m1790 6 c0 -10 -10 -15 -30 -15 -47 0 -35 27 13 29 9 1 17 -6 17 -14z
m-540 -15 c0 -5 -9 -10 -21 -10 -11 0 -17 5 -14 10 3 6 13 10 21 10 8 0 14 -4
14 -10z m-3420 -35 c0 -4 -8 -4 -17 -1 -9 4 -20 1 -24 -6 -4 -7 -11 -10 -14
-6 -4 3 1 15 11 26 14 17 19 18 31 7 7 -8 13 -17 13 -20z m4145 5 c19 -37 20
-37 -12 -44 -34 -9 -44 8 -26 45 8 16 16 29 18 29 3 0 11 -13 20 -30z m45 5
c0 -14 -4 -25 -10 -25 -11 0 -14 33 -3 43 11 11 13 8 13 -18z m-4360 -15 c0
-5 -2 -10 -4 -10 -3 0 -8 5 -11 10 -3 6 -1 10 4 10 6 0 11 -4 11 -10z m1420
-16 c0 -2 -7 -4 -15 -4 -8 0 -15 4 -15 10 0 5 7 7 15 4 8 -4 15 -8 15 -10z
m-1256 -35 c-7 -11 -34 -12 -34 -1 0 14 11 21 26 15 8 -3 11 -9 8 -14z m2211
-29 c-9 -14 -25 5 -25 30 0 12 3 12 16 -2 9 -9 13 -21 9 -28z m1755 -5 c0 -19
-4 -35 -9 -35 -13 0 -18 20 -13 47 7 36 22 27 22 -12z m-550 15 c0 -5 -5 -10
-11 -10 -5 0 -7 5 -4 10 3 6 8 10 11 10 2 0 4 -4 4 -10z m700 -8 c0 -4 -9 -15
-20 -25 -27 -23 -47 -11 -24 14 17 19 44 26 44 11z m-4313 -18 c-3 -3 -12 -4
-19 -1 -8 3 -5 6 6 6 11 1 17 -2 13 -5z m1653 -4 c0 -5 -7 -7 -15 -4 -8 4 -15
8 -15 10 0 2 7 4 15 4 8 0 15 -4 15 -10z m80 6 c0 -3 -4 -8 -10 -11 -5 -3 -10
-1 -10 4 0 6 5 11 10 11 6 0 10 -2 10 -4z m2647 -2 c-3 -3 -12 -4 -19 -1 -8 3
-5 6 6 6 11 1 17 -2 13 -5z m-3236 -47 c-13 -34 -46 -38 -35 -4 9 32 26 49 36
39 5 -5 4 -20 -1 -35z m3189 33 c0 -5 -4 -10 -10 -10 -5 0 -10 5 -10 10 0 6 5
10 10 10 6 0 10 -4 10 -10z m-4121 -25 l2 20 11 -20 c6 -11 16 -23 21 -26 6
-4 5 -14 -2 -25 -10 -18 -10 -18 -11 4 0 23 -25 31 -33 10 -3 -7 -5 5 -5 27 0
34 1 36 8 15 7 -21 8 -22 9 -5z m3338 -17 c-3 -7 -5 -2 -5 12 0 14 2 19 5 13
2 -7 2 -19 0 -25z m-1380 16 c-3 -3 -12 -4 -19 -1 -8 3 -5 6 6 6 11 1 17 -2
13 -5z m1733 -14 c0 -5 -4 -10 -9 -10 -6 0 -13 5 -16 10 -3 6 1 10 9 10 9 0
16 -4 16 -10z m-3730 -20 c0 -14 -6 -20 -22 -19 -13 0 -17 3 -10 6 6 2 12 11
12 19 0 8 5 14 10 14 6 0 10 -9 10 -20z m3995 0 c3 -5 1 -10 -4 -10 -6 0 -11
5 -11 10 0 6 2 10 4 10 3 0 8 -4 11 -10z"/>
<path d="M1970 815 c0 -8 5 -15 10 -15 6 0 10 7 10 15 0 8 -4 15 -10 15 -5 0
-10 -7 -10 -15z"/>
<path d="M312 351 c13 -21 28 -19 28 5 0 8 -9 14 -20 14 -17 0 -19 -3 -8 -19z"/>
<path d="M3068 4243 c6 -2 18 -2 25 0 6 3 1 5 -13 5 -14 0 -19 -2 -12 -5z"/>
<path d="M2670 4220 c0 -5 7 -10 15 -10 8 0 15 5 15 10 0 6 -7 10 -15 10 -8 0
-15 -4 -15 -10z"/>
<path d="M3052 4219 c2 -7 10 -15 17 -17 8 -3 12 1 9 9 -2 7 -10 15 -17 17 -8
3 -12 -1 -9 -9z"/>
<path d="M2606 4212 c-8 -13 11 -35 23 -28 16 10 14 36 -3 36 -8 0 -17 -4 -20
-8z"/>
<path d="M2532 4145 c0 -16 2 -22 5 -12 2 9 2 23 0 30 -3 6 -5 -1 -5 -18z"/>
<path d="M147 4118 c-10 -5 -29 -7 -43 -4 -13 4 -24 3 -24 -2 0 -4 -18 -6 -40
-4 l-40 4 0 -254 0 -254 48 2 c34 1 48 6 50 18 4 19 7 19 33 5 24 -12 69 11
69 36 0 17 16 20 25 5 3 -5 13 -10 22 -10 13 0 15 8 9 46 -3 25 -2 43 3 40 5
-3 12 18 15 47 9 71 5 277 -6 277 -4 0 -8 10 -8 21 0 17 -3 19 -14 10 -12 -10
-14 -9 -10 6 4 16 -1 19 -33 20 -21 1 -46 -3 -56 -9z m-12 -38 c-3 -5 -10 -10
-16 -10 -5 0 -9 5 -9 10 0 6 7 10 16 10 8 0 12 -4 9 -10z m-1 -116 c8 -20 -1
-34 -20 -34 -8 0 -14 -6 -15 -12 0 -10 -2 -10 -6 0 -2 6 -9 10 -14 6 -14 -8
-11 9 7 34 18 26 39 29 48 6z m133 -136 c-2 -18 -4 -6 -4 27 0 33 2 48 4 33 2
-15 2 -42 0 -60z"/>
<path d="M301 4104 c0 -11 3 -14 6 -6 3 7 2 16 -1 19 -3 4 -6 -2 -5 -13z"/>
<path d="M301 4063 c-1 -6 -4 -20 -7 -30 -5 -17 -5 -17 6 0 6 10 9 23 6 30 -3
9 -5 9 -5 0z"/>
<path d="M291 3938 c0 -31 4 -60 9 -63 12 -7 12 70 1 100 -6 14 -9 2 -10 -37z"/>
<path d="M4090 3950 c0 -5 5 -10 11 -10 5 0 7 5 4 10 -3 6 -8 10 -11 10 -2 0
-4 -4 -4 -10z"/>
<path d="M4181 3914 c0 -11 3 -14 6 -6 3 7 2 16 -1 19 -3 4 -6 -2 -5 -13z"/>
<path d="M4218 3873 c7 -3 16 -2 19 1 4 3 -2 6 -13 5 -11 0 -14 -3 -6 -6z"/>
<path d="M0 3328 l0 -155 32 5 c18 3 36 10 40 16 5 8 8 7 8 -1 0 -9 18 -13 55
-13 40 0 57 -4 61 -15 4 -8 15 -15 26 -15 10 0 16 5 13 10 -7 11 27 13 63 4
17 -5 20 -10 12 -19 -18 -21 26 -30 47 -10 16 16 17 16 29 0 11 -15 13 -15 22
1 6 11 22 17 43 17 74 0 110 -3 105 -11 -2 -4 5 -9 17 -9 12 -1 23 -7 25 -13
2 -5 10 -10 18 -10 9 0 12 5 9 10 -3 6 0 10 9 10 8 0 23 3 33 6 15 5 15 4 3
-5 -11 -8 -12 -11 -2 -11 7 0 10 -5 7 -11 -4 -6 1 -6 12 2 26 15 112 3 120
-17 4 -10 14 -13 32 -9 14 3 40 1 56 -4 23 -7 25 -10 10 -11 -23 -3 56 -18 98
-19 23 -1 27 2 22 18 -4 12 0 21 11 25 9 4 14 9 11 13 -4 3 -1 15 4 26 16 28
17 100 2 115 -13 13 -56 29 -103 38 -67 12 -80 16 -80 25 0 5 -16 9 -35 9 -19
0 -35 5 -35 10 0 14 -27 12 -33 -2 -3 -7 -6 -4 -6 7 -1 17 -3 18 -11 5 -8 -13
-11 -13 -19 -1 -5 7 -19 15 -32 17 -13 2 -71 12 -129 22 -58 11 -120 18 -137
16 -19 -3 -33 0 -33 6 0 6 -4 8 -10 5 -5 -3 -10 -2 -10 4 0 7 -8 7 -25 1 -19
-7 -26 -6 -34 8 -8 14 -13 15 -30 4 -12 -7 -21 -8 -21 -3 0 10 -102 35 -135
33 -11 -1 -22 3 -25 7 -3 5 -29 12 -57 16 l-53 7 0 -154z m680 12 c0 -5 -4
-10 -10 -10 -5 0 -10 5 -10 10 0 6 5 10 10 10 6 0 10 -4 10 -10z m310 -276 c0
-2 -7 -4 -15 -4 -8 0 -15 4 -15 10 0 5 7 7 15 4 8 -4 15 -8 15 -10z"/>
<path d="M778 3093 c7 -3 16 -2 19 1 4 3 -2 6 -13 5 -11 0 -14 -3 -6 -6z"/>
<path d="M3008 2603 c7 -3 16 -2 19 1 4 3 -2 6 -13 5 -11 0 -14 -3 -6 -6z"/>
<path d="M4270 2090 c0 -5 -7 -10 -15 -10 -8 0 -15 -4 -15 -10 0 -5 14 -10 31
-10 25 0 29 3 20 13 -6 8 -8 17 -4 20 3 4 1 7 -5 7 -7 0 -12 -4 -12 -10z"/>
<path d="M2100 1981 c0 -19 23 -35 34 -24 14 15 5 43 -14 43 -13 0 -20 -7 -20
-19z"/>
<path d="M4207 1982 c-9 -10 -17 -22 -17 -25 0 -13 95 -6 113 7 16 12 14 14
-18 20 -20 4 -42 9 -49 12 -7 3 -20 -4 -29 -14z"/>
<path d="M4128 1879 c-9 -5 -15 -17 -14 -27 3 -15 18 -17 157 -18 85 0 144 1
131 3 -14 3 -22 10 -18 18 3 10 -15 15 -77 20 -45 4 -100 8 -122 10 -22 2 -48
-1 -57 -6z"/>
<path d="M2844 1845 c-3 -8 -21 -23 -40 -34 -19 -11 -34 -26 -34 -34 0 -24 45
-40 87 -32 47 10 94 7 111 -8 18 -14 54 -17 69 -5 7 6 22 8 34 5 14 -4 29 2
46 19 13 13 29 21 36 17 8 -5 8 -8 -1 -11 -21 -7 -13 -28 14 -41 39 -18 72 6
66 48 -2 17 -8 31 -13 31 -4 0 -28 14 -52 30 -49 33 -82 38 -91 15 -3 -8 -12
-15 -21 -15 -8 0 -15 -7 -15 -15 0 -11 -7 -13 -29 -9 -16 4 -32 1 -35 -5 -11
-18 -34 -13 -41 9 -5 17 -55 50 -77 50 -5 0 -11 -7 -14 -15z m-4 -77 c0 -6 -7
-7 -16 -4 -9 3 -18 6 -20 6 -3 0 -3 4 1 10 7 11 35 2 35 -12z m65 12 c3 -5 1
-10 -4 -10 -6 0 -11 5 -11 10 0 6 2 10 4 10 3 0 8 -4 11 -10z"/>
<path d="M3270 1848 c0 -9 5 -20 10 -23 13 -8 13 5 0 25 -8 13 -10 13 -10 -2z"/>
<path d="M3263 1803 c-15 -5 -18 -33 -4 -33 8 0 25 30 19 35 -2 1 -9 0 -15 -2z"/>
<path d="M4101 1744 c-14 -14 -28 -21 -38 -17 -10 4 -14 2 -9 -5 3 -6 23 -11
44 -11 20 0 48 -3 62 -6 14 -3 65 -6 114 -6 81 -1 91 1 106 22 13 17 19 19 23
8 4 -10 6 -10 6 -1 2 21 -39 29 -165 34 -116 4 -123 3 -143 -18z"/>
<path d="M2231 1544 c0 -11 3 -14 6 -6 3 7 2 16 -1 19 -3 4 -6 -2 -5 -13z"/>
<path d="M2865 1520 c-2 -4 -27 -10 -55 -14 -27 -4 -50 -11 -50 -16 0 -6 -15
-10 -33 -10 -23 0 -41 -8 -57 -25 -32 -34 -17 -46 52 -47 52 -1 54 -2 50 -24
-2 -12 3 -37 12 -55 9 -18 16 -49 16 -70 0 -27 5 -41 19 -48 28 -16 99 -32
172 -40 73 -9 89 -15 89 -37 0 -19 7 -18 37 6 29 23 49 26 56 8 4 -10 8 -10
15 1 8 11 10 11 14 0 4 -11 8 -10 21 3 9 9 17 21 17 27 0 10 30 23 46 20 34
-6 48 17 17 28 -10 3 -25 12 -35 20 -14 13 -17 12 -24 -9 -8 -22 -8 -22 -14 7
-7 31 6 59 21 49 5 -3 9 3 9 13 0 23 35 47 80 53 20 3 36 11 38 20 3 19 -81
75 -128 85 -19 4 -44 13 -55 20 -23 14 -102 31 -125 27 -45 -9 -118 -8 -135 1
-25 13 -64 17 -70 7z m95 -121 c32 1 52 -4 102 -30 11 -5 18 -4 22 4 3 8 9 6
20 -7 8 -10 19 -15 25 -11 6 3 11 2 11 -3 0 -5 -19 -16 -42 -25 -37 -15 -44
-15 -64 -2 -13 8 -25 11 -29 6 -3 -5 1 -12 7 -14 7 -3 -2 -6 -19 -6 -18 -1
-33 3 -33 8 0 16 -40 23 -55 11 -12 -10 -15 -9 -15 5 0 14 -6 16 -30 13 -16
-3 -30 -1 -30 4 0 4 6 8 13 8 6 0 4 5 -5 11 -38 22 -5 40 57 32 17 -3 46 -4
65 -4z m-30 -89 c0 -5 -2 -10 -4 -10 -3 0 -8 5 -11 10 -3 6 -1 10 4 10 6 0 11
-4 11 -10z"/>
<path d="M3790 1300 c0 -5 5 -10 11 -10 5 0 7 5 4 10 -3 6 -8 10 -11 10 -2 0
-4 -4 -4 -10z"/>
<path d="M2640 1110 c0 -5 5 -10 10 -10 6 0 10 5 10 10 0 6 -4 10 -10 10 -5 0
-10 -4 -10 -10z"/>
<path d="M4064 1018 c-3 -11 -3 -22 0 -25 3 -4 6 -1 6 5 0 7 12 12 26 12 28 0
25 15 -5 23 -14 3 -22 -1 -27 -15z"/>
<path d="M2898 963 c6 -2 18 -2 25 0 6 3 1 5 -13 5 -14 0 -19 -2 -12 -5z"/>
<path d="M880 904 c0 -8 5 -12 10 -9 6 4 8 11 5 16 -9 14 -15 11 -15 -7z"/>
<path d="M361 848 c-1 -17 14 -31 37 -34 6 -1 12 4 12 12 0 8 -9 14 -19 14
-11 0 -22 6 -24 13 -3 7 -6 6 -6 -5z"/>
<path d="M1191 794 c0 -11 3 -14 6 -6 3 7 2 16 -1 19 -3 4 -6 -2 -5 -13z"/>
<path d="M505 790 c-3 -5 -1 -10 4 -10 6 0 11 5 11 10 0 6 -2 10 -4 10 -3 0
-8 -4 -11 -10z"/>
<path d="M220 700 c0 -5 5 -10 10 -10 6 0 10 5 10 10 0 6 -4 10 -10 10 -5 0
-10 -4 -10 -10z"/>
<path d="M1010 659 c0 -5 5 -7 10 -4 6 3 10 8 10 11 0 2 -4 4 -10 4 -5 0 -10
-5 -10 -11z"/>
<path d="M765 630 c-3 -5 3 -10 14 -10 12 0 21 5 21 10 0 6 -6 10 -14 10 -8 0
-18 -4 -21 -10z"/>
<path d="M276 591 c-8 -13 23 -63 34 -56 11 7 -3 58 -17 62 -6 2 -14 -1 -17
-6z"/>
<path d="M3585 590 c3 -5 8 -10 11 -10 2 0 4 5 4 10 0 6 -5 10 -11 10 -5 0 -7
-4 -4 -10z"/>
<path d="M925 570 c3 -5 8 -10 11 -10 2 0 4 5 4 10 0 6 -5 10 -11 10 -5 0 -7
-4 -4 -10z"/>
<path d="M1005 570 c-3 -5 1 -10 9 -10 9 0 16 5 16 10 0 6 -4 10 -9 10 -6 0
-13 -4 -16 -10z"/>
<path d="M4435 450 c-3 -5 -1 -10 4 -10 6 0 11 5 11 10 0 6 -2 10 -4 10 -3 0
-8 -4 -11 -10z"/>
<path d="M538 443 c7 -3 16 -2 19 1 4 3 -2 6 -13 5 -11 0 -14 -3 -6 -6z"/>
<path d="M805 440 c-3 -5 -17 -10 -31 -10 -15 0 -24 -6 -24 -15 0 -21 -48 -12
-65 12 -7 10 -17 14 -22 10 -4 -5 0 -15 11 -22 22 -16 14 -35 -13 -28 -11 3
-21 -2 -25 -12 -3 -9 -2 -13 4 -10 6 3 10 -1 10 -9 0 -11 -10 -16 -27 -17 -29
0 -78 -17 -54 -18 7 -1 11 -7 7 -16 -3 -8 -1 -15 4 -15 6 0 10 -4 10 -10 0 -5
-10 -10 -22 -10 -21 -1 -21 -2 -5 -11 15 -9 16 -13 6 -26 -10 -12 -10 -16 1
-23 7 -4 14 -19 16 -32 1 -12 3 -25 3 -27 1 -2 10 4 20 13 11 10 25 15 31 11
13 -8 50 22 50 42 0 7 7 13 15 13 8 0 15 4 15 9 0 5 -9 7 -19 4 -22 -6 -83 26
-75 39 3 4 25 8 48 8 25 0 48 6 55 14 7 8 21 12 31 9 33 -9 22 12 -15 30 -43
20 -45 36 -5 44 17 3 30 9 30 14 0 5 9 9 20 9 11 0 20 4 20 8 0 5 12 13 28 19
l27 11 -27 1 c-15 1 -30 -3 -33 -9z m-88 -132 c-3 -8 -6 -5 -6 6 -1 11 2 17 5
13 3 -3 4 -12 1 -19z"/>
<path d="M586 405 c-3 -8 -1 -15 3 -15 5 0 11 7 15 15 3 8 1 15 -3 15 -5 0
-11 -7 -15 -15z"/>
<path d="M765 360 c-4 -6 5 -10 19 -10 14 0 26 5 26 10 0 6 -9 10 -19 10 -11
0 -23 -4 -26 -10z"/>
<path d="M4518 363 c7 -3 16 -2 19 1 4 3 -2 6 -13 5 -11 0 -14 -3 -6 -6z"/>
<path d="M4566 361 c-14 -5 -16 -10 -7 -15 15 -9 41 -1 41 14 0 11 -7 12 -34
1z"/>
<path d="M4480 350 c0 -5 5 -10 10 -10 6 0 10 5 10 10 0 6 -4 10 -10 10 -5 0
-10 -4 -10 -10z"/>
<path d="M730 194 c0 -22 2 -25 15 -14 8 7 15 19 15 26 0 8 -7 14 -15 14 -10
0 -15 -10 -15 -26z"/>
<path d="M3680 160 c0 -12 28 -21 35 -11 2 5 -4 11 -15 14 -11 3 -20 2 -20 -3z"/>
<path d="M695 153 c11 -3 23 -10 26 -15 4 -6 12 -7 18 -4 19 12 1 26 -32 25
-22 -1 -25 -3 -12 -6z"/>
<path d="M90 135 c0 -8 5 -15 10 -15 6 0 10 7 10 15 0 8 -4 15 -10 15 -5 0
-10 -7 -10 -15z"/>
<path d="M500 129 c0 -5 -4 -7 -10 -4 -5 3 -10 1 -10 -4 0 -6 7 -11 15 -11 8
0 15 7 15 15 0 8 -2 15 -5 15 -3 0 -5 -5 -5 -11z"/>
<path d="M3524 116 c-10 -8 -16 -17 -13 -20 3 -3 16 3 29 14 26 23 14 27 -16
6z"/>
<path d="M756 104 c-8 -22 1 -31 16 -16 9 9 9 15 1 23 -7 7 -12 5 -17 -7z"/>
<path d="M3475 80 c-3 -5 -1 -10 4 -10 6 0 11 5 11 10 0 6 -2 10 -4 10 -3 0
-8 -4 -11 -10z"/>
<path d="M530 70 c0 -5 7 -10 16 -10 8 0 12 5 9 10 -3 6 -10 10 -16 10 -5 0
-9 -4 -9 -10z"/>
<path d="M3536 55 c-19 -15 -19 -15 2 -15 13 0 22 6 22 15 0 18 0 18 -24 0z"/>
<path d="M3400 50 c0 -13 27 -13 35 0 3 6 -3 10 -14 10 -12 0 -21 -4 -21 -10z"/>
<path d="M3455 40 c3 -5 8 -10 11 -10 2 0 4 5 4 10 0 6 -5 10 -11 10 -5 0 -7
-4 -4 -10z"/>
<path d="M2 20 c0 -14 2 -19 5 -12 2 6 2 18 0 25 -3 6 -5 1 -5 -13z"/>
<path d="M2790 16 c0 -10 9 -16 25 -16 14 0 25 5 25 10 0 6 -4 10 -9 10 -5 0
-16 3 -25 6 -11 4 -16 1 -16 -10z"/>
<path d="M3405 19 c-10 -15 3 -25 16 -12 7 7 7 13 1 17 -6 3 -14 1 -17 -5z"/>
</g>
</svg>
